<?xml version="1.0" encoding="UTF-8"?>
<svg xmlns="http://www.w3.org/2000/svg" xmlns:xlink="http://www.w3.org/1999/xlink" version="1.1" viewBox="0 0 404 404.2">
  <defs>
    <style>
      .cls-1, .cls-2, .cls-3 {
        fill: none;
      }

      .cls-4 {
        fill: #0076ba;
      }

      .cls-5 {
        clip-path: url(#clippath-11);
      }

      .cls-6 {
        clip-path: url(#clippath-10);
      }

      .cls-7 {
        fill: #929292;
      }

      .cls-8 {
        clip-path: url(#clippath-1);
      }

      .cls-9 {
        clip-path: url(#clippath-3);
      }

      .cls-10 {
        clip-path: url(#clippath-4);
      }

      .cls-11 {
        clip-path: url(#clippath-2);
      }

      .cls-12 {
        clip-path: url(#clippath-7);
      }

      .cls-13 {
        clip-path: url(#clippath-6);
      }

      .cls-14 {
        clip-path: url(#clippath-9);
      }

      .cls-15 {
        clip-path: url(#clippath-8);
      }

      .cls-16 {
        clip-path: url(#clippath-5);
      }

      .cls-2 {
        stroke-miterlimit: 10;
      }

      .cls-2, .cls-3 {
        stroke: #000;
        stroke-width: 8px;
      }

      .cls-17 {
        fill: #e1200a;
      }

      .cls-18 {
        clip-path: url(#clippath);
      }
    </style>
    <clipPath id="clippath">
      <rect class="cls-1" x="184.3" y="173.3" width="142.2" height="10" transform="translate(-54.7 208.1) rotate(-40.4)"/>
    </clipPath>
    <clipPath id="clippath-1">
      <rect class="cls-1" x="-395.8" y="-361.6" width="1920" height="1080"/>
    </clipPath>
    <clipPath id="clippath-2">
      <rect class="cls-1" x="197" y="72" width="10" height="119.4"/>
    </clipPath>
    <clipPath id="clippath-3">
      <rect class="cls-1" x="96.7" y="147.9" width="10" height="119.4"/>
    </clipPath>
    <clipPath id="clippath-4">
      <rect class="cls-1" x="197" y="234.6" width="10" height="119.4"/>
    </clipPath>
    <clipPath id="clippath-5">
      <rect class="cls-1" x="63.7" y="228.3" width="89.3" height="113.7"/>
    </clipPath>
    <clipPath id="clippath-6">
      <rect class="cls-1" x="42.5" y="82.7" width="118.3" height="115.3"/>
    </clipPath>
    <clipPath id="clippath-7">
      <rect class="cls-1" x="150.3" y="13.7" width="103.5" height="92.5"/>
    </clipPath>
    <clipPath id="clippath-8">
      <rect class="cls-1" x="163.6" y="165.6" width="76.9" height="117.7"/>
    </clipPath>
    <clipPath id="clippath-9">
      <rect class="cls-1" x="159" y="317.4" width="86" height="74.9"/>
    </clipPath>
    <clipPath id="clippath-10">
      <rect class="cls-1" x="251.1" y="228.3" width="89.3" height="113.7"/>
    </clipPath>
    <clipPath id="clippath-11">
      <rect class="cls-1" x="243.3" y="82.7" width="118.3" height="115.3"/>
    </clipPath>
  </defs>
  <!-- Generator: Adobe Illustrator 28.7.1, SVG Export Plug-In . SVG Version: 1.2.0 Build 142)  -->
  <g>
    <g id="Layer_1">
      <g class="cls-18">
        <g class="cls-8">
          <line class="cls-3" x1="202" y1="223.5" x2="308.7" y2="132.6"/>
        </g>
      </g>
      <g class="cls-11">
        <line class="cls-3" x1="202" y1="190.4" x2="202" y2="73"/>
      </g>
      <g class="cls-9">
        <line class="cls-3" x1="101.7" y1="266.3" x2="101.7" y2="148.9"/>
      </g>
      <g class="cls-10">
        <line class="cls-3" x1="202" y1="353" x2="202" y2="235.6"/>
      </g>
      <g class="cls-16">
        <g>
          <path class="cls-4" d="M137.7,262.8c11.6,20.8,15.6,46.4,0,63.1-13,13.9-34.8,14.9-48.7,1.9-10.1-9.4-12.9-23.3-16-36.1-3-12.4-6.7-25.3-2.4-37.8,3.6-10.6,12-18.4,22.8-20.2,18.1-3,34.3,11.1,44.3,29.1Z"/>
          <path class="cls-3" d="M137.7,262.8c11.6,20.8,15.6,46.4,0,63.1-13,13.9-34.8,14.9-48.7,1.9-10.1-9.4-12.9-23.3-16-36.1-3-12.4-6.7-25.3-2.4-37.8,3.6-10.6,12-18.4,22.8-20.2,18.1-3,34.3,11.1,44.3,29.1Z"/>
        </g>
      </g>
      <g class="cls-13">
        <g>
          <path class="cls-4" d="M116.3,101.5c29,18.8,50.4,49.7,33.6,75-19.5,29.4-65.8,17.6-90.1-19.5-14-21.3-18.5-48.9,0-63.1,16.3-12.5,38.5-4.1,56.5,7.6h0Z"/>
          <path class="cls-3" d="M116.3,101.5c29,18.8,50.4,49.7,33.6,75-19.5,29.4-65.8,17.6-90.1-19.5-14-21.3-18.5-48.9,0-63.1,16.3-12.5,38.5-4.1,56.5,7.6h0Z"/>
        </g>
      </g>
      <g class="cls-12">
        <g>
          <path class="cls-7" d="M233.6,26.1c20.7,14.5,19.9,45.4,0,63.1-18,16-45.1,16-63.1,0-19.9-17.7-20.7-48.6,0-63.1,9.4-6.6,20.9-7.4,31.8-7.4s22.1.9,31.3,7.4h0Z"/>
          <path class="cls-3" d="M233.6,26.1c20.7,14.5,19.9,45.4,0,63.1-18,16-45.1,16-63.1,0-19.9-17.7-20.7-48.6,0-63.1,9.4-6.6,20.9-7.4,31.8-7.4s22.1.9,31.3,7.4h0Z"/>
        </g>
      </g>
      <g class="cls-15">
        <g>
          <path class="cls-7" d="M233.5,192.8c3.9,10.7.8,22,.8,32.8s2.6,20.4-.8,30.3c-10.3,29.8-52.6,29.8-63.1,0-3.7-10.4-.8-21.3-.8-31.8s-2.8-21.1.8-31.3c10.4-29.5,52.4-29.7,63.1,0Z"/>
          <path class="cls-3" d="M233.5,192.8c3.9,10.7.8,22,.8,32.8s2.6,20.4-.8,30.3c-10.3,29.8-52.6,29.8-63.1,0-3.7-10.4-.8-21.3-.8-31.8s-2.8-21.1.8-31.3c10.4-29.5,52.4-29.7,63.1,0Z"/>
        </g>
      </g>
      <g class="cls-14">
        <g>
          <path class="cls-7" d="M234.2,328.9c7.2,6.1,6,14.2,5.5,21.8-.5,7.8.2,16.3-5.5,23.8-13.4,17.2-48,17.2-63.1,0-7.3-8.2-7.2-18.2-7-27,.1-6.6.6-13.4,7-18.5,7.8-6.3,20.2-6.4,31.4-6.5,11.3,0,24,0,31.7,6.5h0Z"/>
          <path class="cls-3" d="M234.2,328.9c7.2,6.1,6,14.2,5.5,21.8-.5,7.8.2,16.3-5.5,23.8-13.4,17.2-48,17.2-63.1,0-7.3-8.2-7.2-18.2-7-27,.1-6.6.6-13.4,7-18.5,7.8-6.3,20.2-6.4,31.4-6.5,11.3,0,24,0,31.7,6.5h0Z"/>
        </g>
      </g>
      <g class="cls-6">
        <g>
          <path class="cls-17" d="M266.4,262.8c-11.6,20.8-15.6,46.4,0,63.1,13,13.9,34.8,14.9,48.7,1.9,10.1-9.4,12.9-23.3,16-36.1,3-12.4,6.7-25.3,2.4-37.8-3.6-10.6-12-18.4-22.8-20.2-18.1-3-34.3,11.1-44.3,29.1h0Z"/>
          <path class="cls-3" d="M266.4,262.8c-11.6,20.8-15.6,46.4,0,63.1,13,13.9,34.8,14.9,48.7,1.9,10.1-9.4,12.9-23.3,16-36.1,3-12.4,6.7-25.3,2.4-37.8-3.6-10.6-12-18.4-22.8-20.2-18.1-3-34.3,11.1-44.3,29.1h0Z"/>
        </g>
      </g>
      <g class="cls-5">
        <g>
          <path class="cls-7" d="M287.8,101.5c-29,18.8-50.4,49.7-33.6,75,19.5,29.4,65.8,17.6,90.1-19.5,14-21.3,18.5-48.9,0-63.1-16.3-12.5-38.5-4.1-56.5,7.6h0Z"/>
          <path class="cls-3" d="M287.8,101.5c-29,18.8-50.4,49.7-33.6,75,19.5,29.4,65.8,17.6,90.1-19.5,14-21.3,18.5-48.9,0-63.1-16.3-12.5-38.5-4.1-56.5,7.6h0Z"/>
        </g>
      </g>
      <rect class="cls-2" x="3.9" y="4" width="396" height="396" rx="66" ry="66"/>
    </g>
  </g>
</svg>